<?xml version="1.0" standalone="no"?>
<!DOCTYPE svg PUBLIC "-//W3C//DTD SVG 20010904//EN"
 "http://www.w3.org/TR/2001/REC-SVG-20010904/DTD/svg10.dtd">
<svg version="1.0" xmlns="http://www.w3.org/2000/svg"
 width="424.000000pt" height="424.000000pt" viewBox="0 0 424.000000 424.000000"
 preserveAspectRatio="xMidYMid meet">
<metadata>
Created by potrace 1.14, written by Peter Selinger 2001-2017
</metadata>
<g transform="translate(0.000000,424.000000) scale(0.100000,-0.100000)"
fill="#000000" stroke="none">
<path d="M1896 4119 c-623 -80 -1169 -438 -1494 -980 -143 -239 -244 -550
-271 -839 -10 -98 -7 -324 4 -420 98 -829 704 -1521 1513 -1724 312 -79 674
-79 981 -2 664 169 1199 657 1419 1296 78 228 111 425 110 670 -1 406 -110
766 -333 1107 -319 485 -827 804 -1416 888 -114 16 -400 18 -513 4z"/>
</g>
</svg>
